<?xml version="1.0" encoding="utf-8"?>
<!-- Generator: Adobe Illustrator 27.5.0, SVG Export Plug-In . SVG Version: 6.00 Build 0)  -->
<svg version="1.1" xmlns="http://www.w3.org/2000/svg" xmlns:xlink="http://www.w3.org/1999/xlink" x="0px" y="0px"
	 viewBox="0 0 500 500" style="enable-background:new 0 0 500 500;" xml:space="preserve">
<g id="BACKGROUND">
	<rect x="-0.002" y="0.001" style="fill:#D9E5E8;" width="500.001" height="500"/>
</g>
<g id="OBJECTS">
	<g>
		<path d="M367.789,416.784c-1.462-0.056-2.32-1.188-2.973-2.343c0.537-0.4,0.98-0.949,1.211-1.719l-49.213-81
			c0,0-0.087-2.238-3.78-5.246c15.272-2.567,29.357-6.303,33.239-9.012c7.754-5.409,7.815-10.815,9.356-16.89
			c2.115-8.337,4.161-35.64,4.398-40.853c0.333-7.334,0.333-14.001-6-19.001c-0.223-0.184-0.448-0.353-0.673-0.526
			c3.183-2.197,5.468-5.322,6.006-9.807c0.334-2-0.333-4-0.333-5.667c0.333-2.333,0.667-2,2-4.333c3.333-6-2.333-4.333-2.333-9
			c0-2,2.333-3,2.666-5c0.334-2-1.333-3.667-2-5.333c-1-3.667-1.333-7.333-1.333-11c0-9.333,0.667-18-1-27.333
			c-2-10.333-1.667-18.667-9.333-25.667l-0.186,0.447c-2.434-2.035-5.418-3.514-8.72-4.535c1.916-1.165,3.548-2.805,4.676-4.907
			c2.683-5,0.288-9.924-1.362-14.892c0.034-0.871,0.045-1.742,0.009-2.614c-0.25-3-0.75-5.5-1.5-8.25
			c-0.492-1.969-2.676-5.873-2.505-7.663c2.043,2.36,3.792,3.691,4.255,7.163c1.5-4.5,1.5-9.75-1.75-13.25c-3.5-4-6.5-6.5-8.75-11.5
			c-1.75-4-5.75-19.75-14.75-15.75l-0.5-0.5c-1-3.25-5-7.25-8.5-8c-6.5-1.25-10.25,6.25-13,10.75c-3.5,5-7.5,10.25-12.25,14.5
			s-8,8.75-8,15.5c0,9.25,6,24.75-8.25,26.25c0.5,1.75,2.25,3,4,2.75c-2.25,0.75-3.5-0.5-4.75,1.75c-1,1.5-0.5,4.5-0.25,6.25
			c0.75,4.5,4.75,8.25,9.5,8c-1.5,2.5-5,1.75-6.5,4.5c-0.37,0.667-0.597,1.45-0.736,2.278c-6.07,3.53-9.113,14.989-11.514,20.056
			c-1.666,4-4.666,5.667-7.667,9c-3,3.333-1.666,7.667-4.333,10.667c-1.333,1.333-3,1-4.333,2.666c-1.334,1.667-1,3.667-2,5.334
			c-1.667,3.666-5,4.666-7.667,7c-3,3.333-2.333,5-7,7.333c-3,1.333-6.333,3-9.667,4c-7.666,2.333-15,4.333-22.666,6.333
			c-3,0.667-7,1.334-9.667,2.334c-4.333,1.666-4.667,4.666-6.667,8.333c-3.666,6.667-8,12-10,19.667c-0.666,2-3,6.667-2.666,8.667
			c0.333,2,2,1.333,3,3c0.666,1.333,0.333,2.333,0.666,4c0.334,2.333,1.667,9.333,4.334,5.333c1-1.333,0-7.333,0-9.333
			c0-3.334,5.333-19.333,8.333-13.333c2.61,5.22-4.992,11.717-1.877,16.992c-0.552,1.595-1.135,3.163-1.79,4.675
			c-3.333,8-7.666,16-11.666,23.667c-2,3.667-3.667,7.333-6,10.667c-2.667,3.666-6.667,6.666-9,10.666
			c-1.334,2.667-1.334,5.667-2.667,8c-1.667,3-4.667,3.334-6.667,5.667c-1.333,2.333-1.333,5.333-3,7.667c-1.666,2.333-4,4-6,5.666
			c1.334,1.667,3,3,4.334,4.667c-9,13-17.334,32-32,39c-3.334,1.667-18,3.333-15.334,8.333c2.334,4.334,15.667,5.667,20.334,6.334
			c3.666,0.666,7.333,1.333,11.333,1.333c5,0,7-2.333,10.667-5.667c2.333-2.333,8-9,10-5.666c1.333,2.333,0,8.666,0,11.333
			c1.333,0,3,0.333,4.333,1c1.333-7.333,5.667-15.333,9.333-21.667c4.334-8,2-12,0-20c0.667,0.667,2.334,0.667,3,1
			c3.667-6,8.334-13.333,11-20c1.334-4.333,2.334-6.333,5-10c2.667-3,3.667-7.333,6.334-10c2.396-2.397,4.448-3.764,6.404-5.827
			c-0.023,0.388-0.045,0.775-0.071,1.161c-0.667,9.666-1.333,19.666-1.667,29.333c-0.333,11.333-0.666,22.667-0.666,33.667
			c0,2.176,0.06,4.415,0.077,6.662l-13.744,30.392c0,0,0.783,0.892,2.429,1.641c-0.35,0.757-1.021,1.374-1.812,1.607
			c-0.734,0.221-1.396-0.073-1.91,0.661c-0.147,0.294-0.514,1.91-0.367,2.278c0.514,1.175,3.526,0.955,4.702,1.028
			c0.734,0,1.983,0.146,2.644-0.221c0.735-0.44,0.515-1.249,0.515-2.057c-1.029-0.147-2.131-0.955-2.425-1.984
			c-0.088-0.206-0.151-0.53-0.178-0.868c0.78,0.249,1.687,0.446,2.735,0.527l5.994-14.232c0.61,0.631,1.653,0.979,3.339,0.899
			c0.666,7.667-2.334,13.667-5.334,20.333c-3.333,7.334-4.333,14.334-10.333,19.667c-3,2.667-15.667,12.333-11,17.333
			c3.667,3.667,15.667,2,20.333,1.334c10.667-1.667,10.334-15,18.667-21c0,3,0.333,6.333,0.667,9.333c1.666,0,3,0,4.666,0
			c0.667-8.667,4-15.333,6.334-23.333c2-8.667-4-13.667-5.667-21.667c1,0.667,2.333,0.333,3.333,0.667
			c0.334-3.667,0.334-7.334,0.334-11c0-4.334,1-6,3-10c3-7,1-15.334,2.666-22.334c1.667-7.333,4.334-14.333,5-22
			c0.527-7.122,0.441-14.242,1.038-21.199c9.19,1.43,20.037,2.94,30.016,4.299v66.9h2.513c-0.033,0.087-0.053,0.173-0.098,0.262
			c-0.441,0.955-1.102,0.882-2.057,1.249c-0.294,0.809-0.294,1.837-0.221,2.719c1.625,0.412,3.159,0.44,4.85,0.367
			c0.955-0.073,1.102,0.073,1.249-0.808c0.146-0.735,0.073-1.543,0.073-2.204c-1.628-0.253-2.039-0.666-2.433-1.585h1.736
			l-0.618-66.224c9.372,1.267,17.507,2.352,22.052,3.034c0.796,0.119,1.654,0.21,2.539,0.289c2.036,2.363,4.258,6.473,5.361,13.567
			l14,103.333c0,0,2.116,0,2.121,0c0.053,0-0.156,0.874-0.186,0.947c-0.119,0.301-0.305,0.566-0.561,0.767
			c-0.31,0.244-0.645,0.326-1.027,0.38c-0.369,0.052-0.441,0.146-0.555,0.496c-0.211,0.648-0.313,1.346-0.478,2.009
			c-0.221,1.249,0.146,1.322,1.396,1.616c1.176,0.294,4.629,0.661,5.437-0.661c0.367-0.514-0.074-2.057-0.294-2.645
			c-0.221-0.441-0.073-0.367-0.441-0.661c-0.22-0.221-0.808-0.294-1.175-0.588c-0.517-0.413-0.85-1.007-1.05-1.661h2.814
			L287.86,342.388c0,0,0.569-7.137-5.169-12.992c6.77,0.052,14.981-0.67,23.254-1.826c1.763,1.147,3.997,3.117,6.082,6.485
			l48.112,81.333c0,0,1.573,0.213,3.117-0.21c0.102,1.275,0.173,1.823-1.41,2.016c0,0-0.216,1.973-0.216,2.781
			c1.47,0.22,3.366,0.482,4.836,0.115c0.734-0.147,1.587-0.174,1.734-0.835C368.348,418.593,367.789,417.445,367.789,416.784z
			 M338.61,128.055c1.624-3.97,2.846-8.202,3.312-12.505c1.118,3.149,2.148,6.301,1.491,9.699c-0.661,3.419-3.011,5.888-5.956,7.329
			c-0.254-0.067-0.513-0.124-0.77-0.188C337.343,130.986,337.995,129.559,338.61,128.055z M337.881,94.378
			c-0.152-0.095-0.27-0.153-0.27-0.322C337.701,94.166,337.791,94.271,337.881,94.378z M238.36,225.055
			c1-0.334,1.667,1.666,2.667,0.666c1-0.333,1.333-3,1.333-4c3.333,0.667,4.667,1.667,7.333-0.333c1-1,1.334-3,2.334-3.667
			c1-0.666,3.333-1,4.667-1.666c1.697-0.771,3.821-2.405,5.748-4.296c0.033,1.481-0.078,3.013-0.415,4.63
			c-1.333,7-3.667,14-7.667,20c-0.676,0.901-1.506,1.96-2.345,3.062c-3.395-1.039-6.913-1.984-10.401-2.613
			c-1.359-3.783-5.348-6.689-9.191-8.32c1.26-0.436,2.196-1.232,3.604-1.796C237.027,226.389,237.36,225.389,238.36,225.055z"/>
	</g>
</g>
</svg>
